HIERARCHY
ROOT hip
{
	OFFSET 0.000000 0.000000 0.000000 
	CHANNELS 6 Xposition Yposition Zposition Zrotation Yrotation Xrotation
	JOINT abdomen
	{
		OFFSET 0.000000 20.688101 -0.731520 
		CHANNELS 3 Zrotation Xrotation Yrotation
		JOINT chest
		{
			OFFSET 0.000000 11.704300 -0.487680 
			CHANNELS 3 Zrotation Xrotation Yrotation
			JOINT neck
			{
				OFFSET 0.000000 22.189400 -2.194560 
				CHANNELS 3 Zrotation Xrotation Yrotation
				JOINT head
				{
					OFFSET -0.243840 7.071330 1.219200 
					CHANNELS 3 Zrotation Xrotation Yrotation
					JOINT leftEye
					{
						OFFSET 4.145280 8.046740 8.046720 
						CHANNELS 3 Zrotation Xrotation Yrotation
						End Site
						{
							OFFSET 1.000000 0.000000 0.000000 
						}
					}
					JOINT rightEye
					{
						OFFSET -3.657600 8.046740 8.046720 
						CHANNELS 3 Zrotation Xrotation Yrotation
						End Site
						{
							OFFSET 1.000000 0.000000 0.000000 
						}
					}
				}
			}
			JOINT rCollar
			{
				OFFSET -2.682240 19.263399 -4.876800 
				CHANNELS 3 Zrotation Xrotation Yrotation
				JOINT rShldr
				{
					OFFSET -8.778240 -1.950730 1.463040 
					CHANNELS 3 Zrotation Xrotation Yrotation
					JOINT rForeArm
					{
						OFFSET -28.174200 -1.711500 0.487680 
						CHANNELS 3 Zrotation Xrotation Yrotation
						JOINT rHand
						{
							OFFSET -22.587900 0.773209 7.071360 
							CHANNELS 3 Zrotation Xrotation Yrotation
							JOINT rThumb1
							{
								OFFSET -1.219200 -0.487915 3.413760 
								CHANNELS 3 Zrotation Xrotation Yrotation
								JOINT rThumb2
								{
									OFFSET -3.370350 -0.524490 3.413760 
									CHANNELS 3 Zrotation Xrotation Yrotation
									End Site
									{
										OFFSET -1.782710 -1.182140 1.430490 
									}
								}
							}
							JOINT rIndex1
							{
								OFFSET -7.759470 0.938293 5.608320 
								CHANNELS 3 Zrotation Xrotation Yrotation
								JOINT rIndex2
								{
									OFFSET -2.540570 -0.884171 1.565380 
									CHANNELS 3 Zrotation Xrotation Yrotation
									End Site
									{
										OFFSET -1.625190 -0.234802 1.165020 
									}
								}
							}
							JOINT rMid1
							{
								OFFSET -8.247140 1.182130 3.413760 
								CHANNELS 3 Zrotation Xrotation Yrotation
								JOINT rMid2
								{
									OFFSET -3.101650 -0.590103 1.064700 
									CHANNELS 3 Zrotation Xrotation Yrotation
									End Site
									{
										OFFSET -2.485470 -0.328903 0.837420 
									}
								}
							}
							JOINT rRing1
							{
								OFFSET -8.828220 0.546677 1.516780 
								CHANNELS 3 Zrotation Xrotation Yrotation
								JOINT rRing2
								{
									OFFSET -2.609340 -0.819778 -0.019849 
									CHANNELS 3 Zrotation Xrotation Yrotation
									End Site
									{
										OFFSET -2.338420 -0.294052 0.168128 
									}
								}
							}
							JOINT rPinky1
							{
								OFFSET -8.272020 -0.047791 -0.458400 
								CHANNELS 3 Zrotation Xrotation Yrotation
								JOINT rPinky2
								{
									OFFSET -1.827340 -0.647385 -0.700984 
									CHANNELS 3 Zrotation Xrotation Yrotation
									End Site
									{
										OFFSET -1.692250 -0.517670 -0.607171 
									}
								}
							}
						}
					}
				}
			}
			JOINT lCollar
			{
				OFFSET 2.682240 19.263399 -4.876800 
				CHANNELS 3 Zrotation Xrotation Yrotation
				JOINT lShldr
				{
					OFFSET 8.778240 -1.950730 1.463040 
					CHANNELS 3 Zrotation Xrotation Yrotation
					JOINT lForeArm
					{
						OFFSET 28.174200 -1.711500 0.487680 
						CHANNELS 3 Zrotation Xrotation Yrotation
						JOINT lHand
						{
							OFFSET 22.587900 0.773209 7.071360 
							CHANNELS 3 Zrotation Xrotation Yrotation
							JOINT lThumb1
							{
								OFFSET 1.219200 -0.487915 3.413760 
								CHANNELS 3 Zrotation Xrotation Yrotation
								JOINT lThumb2
								{
									OFFSET 3.370350 -0.524490 3.413760 
									CHANNELS 3 Zrotation Xrotation Yrotation
									End Site
									{
										OFFSET 1.782710 -1.182140 1.430490 
									}
								}
							}
							JOINT lIndex1
							{
								OFFSET 7.759470 0.938293 5.608320 
								CHANNELS 3 Zrotation Xrotation Yrotation
								JOINT lIndex2
								{
									OFFSET 2.540570 -0.884171 1.565380 
									CHANNELS 3 Zrotation Xrotation Yrotation
									End Site
									{
										OFFSET 1.625190 -0.234802 1.165020 
									}
								}
							}
							JOINT lMid1
							{
								OFFSET 8.247140 1.182130 3.413760 
								CHANNELS 3 Zrotation Xrotation Yrotation
								JOINT lMid2
								{
									OFFSET 3.101650 -0.590103 1.064700 
									CHANNELS 3 Zrotation Xrotation Yrotation
									End Site
									{
										OFFSET 2.485470 -0.328903 0.837420 
									}
								}
							}
							JOINT lRing1
							{
								OFFSET 8.828220 0.546677 1.516780 
								CHANNELS 3 Zrotation Xrotation Yrotation
								JOINT lRing2
								{
									OFFSET 2.609340 -0.819778 -0.019849 
									CHANNELS 3 Zrotation Xrotation Yrotation
									End Site
									{
										OFFSET 2.338420 -0.294052 0.168128 
									}
								}
							}
							JOINT lPinky1
							{
								OFFSET 8.272020 -0.047791 -0.458400 
								CHANNELS 3 Zrotation Xrotation Yrotation
								JOINT lPinky2
								{
									OFFSET 1.827340 -0.647385 -0.700984 
									CHANNELS 3 Zrotation Xrotation Yrotation
									End Site
									{
										OFFSET 1.692250 -0.517670 -0.607171 
									}
								}
							}
						}
					}
				}
			}
		}
	}
	JOINT rButtock
	{
		OFFSET -8.778240 4.350840 1.219200 
		CHANNELS 3 Zrotation Xrotation Yrotation
		JOINT rThigh
		{
			OFFSET 0.000000 -1.706870 -2.194560 
			CHANNELS 3 Zrotation Xrotation Yrotation
			JOINT rShin
			{
				OFFSET 0.000000 -36.819901 0.731520 
				CHANNELS 3 Zrotation Xrotation Yrotation
				JOINT rFoot
				{
					OFFSET 0.731520 -45.110401 -5.120640 
					CHANNELS 3 Zrotation Xrotation Yrotation
					End Site
					{
						OFFSET -1.122100 -3.699640 12.103000 
					}
				}
			}
		}
	}
	JOINT lButtock
	{
		OFFSET 8.778240 4.350840 1.219200 
		CHANNELS 3 Zrotation Xrotation Yrotation
		JOINT lThigh
		{
			OFFSET 0.000000 -1.706870 -2.194560 
			CHANNELS 3 Zrotation Xrotation Yrotation
			JOINT lShin
			{
				OFFSET 0.000000 -36.819901 0.731520 
				CHANNELS 3 Zrotation Xrotation Yrotation
				JOINT lFoot
				{
					OFFSET -0.731520 -45.110401 -5.120640 
					CHANNELS 3 Zrotation Xrotation Yrotation
					End Site
					{
						OFFSET 1.122100 -3.699640 12.103000 
					}
				}
			}
		}
	}
}
MOTION
Frames: 7
Frame Time: 0.008333
55.886902 83.865501 192.720001 -176.453003 -5.697300 176.362000 4.881130 1.200130 0.814486 -0.485974 -9.619530 0.553178 -8.581710 15.063000 -4.489250 16.236401 -24.715099 -5.649580 -0.000000 0.000000 0.000000 -0.000000 0.000000 0.000000 0.000000 -0.000000 -0.000000 84.605202 48.534901 -6.876380 -14.987400 -7.779290 27.563299 -0.370289 17.050600 2.470380 -0.000000 0.000000 -0.000000 -0.000000 0.000000 -0.000000 -0.000000 0.000000 -0.000000 7.730910 5.474880 0.417314 -0.000000 0.000000 -0.000000 2.905540 0.965183 0.102902 -0.000000 0.000000 -0.000000 10.278600 0.731801 0.025912 -0.000000 0.000000 -0.000000 2.221670 -0.733487 -0.208920 0.000000 -0.000000 -0.000000 -86.031403 36.117298 12.402900 18.294500 -11.007600 -34.681999 0.152684 11.049400 -1.572730 0.000000 -0.000000 -0.000000 0.000000 -0.000000 -0.000000 0.000000 -0.000000 -0.000000 -7.730910 5.474880 -0.417314 0.000000 -0.000000 -0.000000 -2.905540 0.965183 -0.102902 0.000000 -0.000000 -0.000000 -10.278600 0.731801 -0.025912 0.000000 -0.000000 -0.000000 -2.221670 -0.733487 0.208920 -0.000000 0.000000 -0.000000 22.354799 -5.890570 16.914900 0.057155 25.930901 0.487735 -7.422030 -11.890900 -32.708302 0.000000 0.000000 0.000000 5.702410 -28.685699 -5.700740 1.362660 64.750900 -2.138390 1.261610 -5.786890 5.171080 
55.902802 83.833702 192.378998 -176.472000 -5.579100 176.354996 4.863020 1.242960 0.895638 -0.626382 -9.667290 0.547109 -8.591290 14.964100 -4.450200 16.272301 -24.570299 -5.573820 -0.000000 0.000000 0.000000 -0.000000 0.000000 0.000000 0.000000 -0.000000 -0.000000 84.744698 48.716400 -6.888980 -15.040800 -7.825570 27.673300 -0.359975 16.820000 2.434950 -0.000000 0.000000 -0.000000 -0.000000 0.000000 -0.000000 -0.000000 0.000000 -0.000000 7.730910 5.474880 0.417314 -0.000000 0.000000 -0.000000 2.905540 0.965183 0.102902 -0.000000 0.000000 -0.000000 10.278600 0.731801 0.025912 -0.000000 0.000000 -0.000000 2.221670 -0.733487 -0.208920 0.000000 -0.000000 -0.000000 -85.931801 35.973900 12.343300 18.190399 -10.893400 -34.447300 0.153674 11.084100 -1.577810 0.000000 0.000000 -0.000000 0.000000 0.000000 -0.000000 0.000000 0.000000 -0.000000 -7.730910 5.474880 -0.417314 0.000000 0.000000 -0.000000 -2.905540 0.965183 -0.102902 0.000000 0.000000 -0.000000 -10.278600 0.731801 -0.025912 0.000000 0.000000 -0.000000 -2.221670 -0.733487 0.208920 -0.000000 0.000000 -0.000000 22.384300 -5.598130 17.034401 0.069819 25.968201 0.535101 -7.686010 -12.102800 -32.863899 0.000000 0.000000 0.000000 5.348550 -29.203400 -5.819260 1.295180 64.088203 -2.108860 1.580190 -6.490330 6.078960 
55.933300 83.815300 192.020004 -176.401993 -5.491800 176.272995 4.830580 1.280470 0.993827 -0.765011 -9.727220 0.545327 -8.545630 14.893100 -4.429480 16.206600 -24.477600 -5.550390 -0.000000 0.000000 0.000000 -0.000000 0.000000 0.000000 0.000000 -0.000000 -0.000000 84.921501 48.869301 -6.957340 -15.108000 -7.884250 27.811300 -0.351628 16.629200 2.405690 -0.000000 0.000000 -0.000000 -0.000000 0.000000 -0.000000 -0.000000 0.000000 -0.000000 7.730910 5.474880 0.417314 -0.000000 0.000000 -0.000000 2.905540 0.965183 0.102902 -0.000000 0.000000 -0.000000 10.278600 0.731801 0.025912 -0.000000 0.000000 -0.000000 2.221670 -0.733487 -0.208920 0.000000 -0.000000 -0.000000 -85.835999 35.822399 12.316600 18.111900 -10.807500 -34.271599 0.148571 10.921700 -1.554000 0.000000 0.000000 -0.000000 0.000000 0.000000 -0.000000 0.000000 0.000000 -0.000000 -7.730910 5.474880 -0.417314 0.000000 0.000000 -0.000000 -2.905540 0.965183 -0.102902 0.000000 0.000000 -0.000000 -10.278600 0.731801 -0.025912 0.000000 0.000000 -0.000000 -2.221670 -0.733487 0.208920 -0.000000 0.000000 -0.000000 22.362900 -5.276860 17.078800 0.078487 25.906900 0.582171 -7.855500 -12.235200 -32.937500 0.000000 0.000000 0.000000 4.982010 -29.687099 -5.974280 1.224490 63.325100 -2.072170 1.831110 -7.105830 6.724790 
55.932301 83.784698 191.656998 -176.485001 -5.417500 176.186996 4.774590 1.309100 1.123720 -0.909535 -9.809340 0.550706 -8.397710 14.858200 -4.442020 15.954700 -24.443001 -5.626430 -0.000000 0.000000 0.000000 -0.000000 0.000000 0.000000 0.000000 -0.000000 -0.000000 85.173599 48.973202 -7.123260 -15.199800 -7.964990 28.000099 -0.346048 16.499399 2.385860 -0.000000 0.000000 -0.000000 -0.000000 0.000000 -0.000000 -0.000000 0.000000 -0.000000 7.730910 5.474880 0.417314 -0.000000 0.000000 -0.000000 2.905540 0.965183 0.102902 -0.000000 0.000000 -0.000000 10.278600 0.731801 0.025912 -0.000000 0.000000 -0.000000 2.221670 -0.733487 -0.208920 0.000000 -0.000000 -0.000000 -85.741096 35.702801 12.339700 18.073500 -10.765600 -34.186001 0.134131 10.429100 -1.482080 0.000000 0.000000 -0.000000 0.000000 0.000000 -0.000000 0.000000 0.000000 -0.000000 -7.730910 5.474880 -0.417314 0.000000 0.000000 -0.000000 -2.905540 0.965183 -0.102902 0.000000 0.000000 -0.000000 -10.278600 0.731801 -0.025912 0.000000 0.000000 -0.000000 -2.221670 -0.733487 0.208920 -0.000000 0.000000 -0.000000 22.272499 -4.919830 17.014099 0.082398 25.718500 0.629654 -7.895110 -12.259200 -32.898399 0.000000 0.000000 0.000000 4.581730 -30.140900 -6.194520 1.151240 62.452099 -2.027740 1.953160 -7.607320 6.951840 
55.947701 83.822197 191.307007 -176.535004 -5.303200 176.158997 4.702440 1.334730 1.279430 -1.065000 -9.908570 0.561508 -8.174150 14.841700 -4.478040 15.572100 -24.442499 -5.772890 -0.000000 0.000000 0.000000 -0.000000 0.000000 0.000000 0.000000 -0.000000 -0.000000 85.489197 49.033798 -7.365100 -15.309100 -8.061530 28.226000 -0.342337 16.413401 2.372700 -0.000000 0.000000 -0.000000 -0.000000 0.000000 -0.000000 -0.000000 0.000000 -0.000000 7.730910 5.474880 0.417314 -0.000000 0.000000 -0.000000 2.905540 0.965183 0.102902 -0.000000 0.000000 -0.000000 10.278600 0.731801 0.025912 -0.000000 0.000000 -0.000000 2.221670 -0.733487 -0.208920 0.000000 -0.000000 -0.000000 -85.633499 35.604801 12.383800 18.054800 -10.745400 -34.144100 0.115486 9.718480 -1.378920 0.000000 -0.000000 -0.000000 0.000000 -0.000000 -0.000000 0.000000 -0.000000 -0.000000 -7.730910 5.474880 -0.417314 0.000000 -0.000000 -0.000000 -2.905540 0.965183 -0.102902 0.000000 -0.000000 -0.000000 -10.278600 0.731801 -0.025912 0.000000 -0.000000 -0.000000 -2.221670 -0.733487 0.208920 -0.000000 0.000000 -0.000000 22.134300 -4.528870 16.886400 0.083052 25.429199 0.677261 -7.839240 -12.200400 -32.787800 0.000000 0.000000 0.000000 4.156550 -30.561399 -6.462270 1.076150 61.472198 -1.977660 1.981710 -8.006050 6.909890 
55.978802 83.864098 191.001999 -176.528000 -5.230600 176.270996 4.629250 1.360970 1.432380 -1.210290 -10.006200 0.572585 -7.961070 14.838400 -4.511170 15.208400 -24.480600 -5.905210 -0.000000 0.000000 0.000000 -0.000000 0.000000 0.000000 0.000000 -0.000000 -0.000000 85.792603 49.091999 -7.605900 -15.416000 -8.156190 28.448299 -0.338950 16.335699 2.360820 -0.000000 0.000000 -0.000000 -0.000000 0.000000 -0.000000 -0.000000 0.000000 -0.000000 7.730910 5.474880 0.417314 -0.000000 0.000000 -0.000000 2.905540 0.965183 0.102902 -0.000000 0.000000 -0.000000 10.278600 0.731801 0.025912 -0.000000 0.000000 -0.000000 2.221670 -0.733487 -0.208920 0.000000 -0.000000 -0.000000 -85.528999 35.446301 12.431700 18.040001 -10.729600 -34.110500 0.099345 9.004880 -1.275990 -0.000000 -0.000000 -0.000000 -0.000000 -0.000000 -0.000000 -0.000000 -0.000000 -0.000000 -7.730910 5.474880 -0.417314 -0.000000 -0.000000 -0.000000 -2.905540 0.965183 -0.102902 -0.000000 -0.000000 -0.000000 -10.278600 0.731801 -0.025912 -0.000000 -0.000000 -0.000000 -2.221670 -0.733487 0.208920 -0.000000 0.000000 -0.000000 21.978100 -4.116750 16.739000 0.082058 25.083799 0.723197 -7.739960 -12.105600 -32.642799 0.000000 0.000000 0.000000 3.744830 -30.940800 -6.727140 1.001380 60.404701 -1.925900 1.990400 -8.358790 6.834190 
55.994301 83.887703 190.675003 -176.548996 -5.155600 176.320999 4.570190 1.391440 1.553990 -1.324350 -10.083400 0.578782 -7.844580 14.843600 -4.515070 15.013700 -24.562201 -5.938760 -0.000000 0.000000 0.000000 -0.000000 0.000000 0.000000 0.000000 -0.000000 -0.000000 86.008904 49.189602 -7.769040 -15.501000 -8.231730 28.626101 -0.334415 16.231100 2.344830 -0.000000 0.000000 -0.000000 -0.000000 0.000000 -0.000000 -0.000000 0.000000 -0.000000 7.730910 5.474880 0.417314 -0.000000 0.000000 -0.000000 2.905540 0.965183 0.102902 -0.000000 0.000000 -0.000000 10.278600 0.731801 0.025912 -0.000000 0.000000 -0.000000 2.221670 -0.733487 -0.208920 0.000000 -0.000000 -0.000000 -85.443199 35.145302 12.466300 18.013000 -10.700700 -34.049599 0.089515 8.503500 -1.204030 -0.000000 -0.000000 -0.000000 -0.000000 -0.000000 -0.000000 -0.000000 -0.000000 -0.000000 -7.730910 5.474880 -0.417314 -0.000000 -0.000000 -0.000000 -2.905540 0.965183 -0.102902 -0.000000 -0.000000 -0.000000 -10.278600 0.731801 -0.025912 -0.000000 -0.000000 -0.000000 -2.221670 -0.733487 0.208920 -0.000000 0.000000 -0.000000 21.832500 -3.696660 16.614401 0.080813 24.727400 0.765752 -7.648860 -12.021900 -32.500000 0.000000 0.000000 0.000000 3.386730 -31.272100 -6.937820 0.928455 59.268799 -1.875810 2.059500 -8.721560 6.961130 
